<svg viewBox="0 0 75 32" xmlns="http://www.w3.org/2000/svg" xmlns:xlink="http://www.w3.org/1999/xlink" id="logo">
<path d="M46.144 9.272V11.048H41.584V26H39.4V11.048H34.816V9.272H46.144ZM54.0404 9.272C55.8644 9.272 57.4404 9.616 58.7684 10.304C60.1124 10.976 61.1364 11.944 61.8404 13.208C62.5604 14.472 62.9204 15.96 62.9204 17.672C62.9204 19.384 62.5604 20.872 61.8404 22.136C61.1364 23.384 60.1124 24.344 58.7684 25.016C57.4404 25.672 55.8644 26 54.0404 26H48.8324V9.272H54.0404ZM54.0404 24.2C56.2004 24.2 57.8484 23.632 58.9844 22.496C60.1204 21.344 60.6884 19.736 60.6884 17.672C60.6884 15.592 60.1124 13.968 58.9604 12.8C57.8244 11.632 56.1844 11.048 54.0404 11.048H51.0164V24.2H54.0404ZM67.9851 24.224H73.8411V26H65.8011V9.272H67.9851V24.224Z" fill="white"/>
<g clip-path="url(#clip0)">
<path d="M15.0303 12.25C17.0996 12.25 18.7876 13.9328 18.7876 16C18.7876 18.0672 17.0996 19.75 15.0303 19.75C12.9609 19.75 11.273 18.0672 11.273 16C11.273 13.9328 12.9609 12.25 15.0303 12.25ZM15.0303 8.5C10.8803 8.5 7.51562 11.8581 7.51562 16C7.51562 20.1419 10.8803 23.5 15.0303 23.5C19.1803 23.5 22.544 20.1419 22.544 16C22.544 11.8581 19.1803 8.5 15.0303 8.5ZM13.1507 2.875C13.1507 1.83947 13.9918 1 15.0294 1C16.0669 1 16.908 1.83947 16.908 2.875C16.908 3.91053 16.0669 4.75 15.0294 4.75C13.9918 4.75 13.1507 3.91053 13.1507 2.875ZM3.75734 6.625C3.75734 5.58947 4.59845 4.75 5.63601 4.75C6.67356 4.75 7.51468 5.58947 7.51468 6.625C7.51468 7.66053 6.67356 8.5 5.63601 8.5C4.59845 8.5 3.75734 7.66053 3.75734 6.625ZM1.87867 14.125C2.91663 14.125 3.75734 14.9641 3.75734 16C3.75734 17.0378 2.91663 17.875 1.87867 17.875C0.840705 17.875 0 17.0378 0 16C0 14.9641 0.840705 14.125 1.87867 14.125ZM3.75734 25.375C3.75734 24.3395 4.59845 23.5 5.63601 23.5C6.67356 23.5 7.51468 24.3395 7.51468 25.375C7.51468 26.4105 6.67356 27.25 5.63601 27.25C4.59845 27.25 3.75734 26.4105 3.75734 25.375ZM13.1507 29.125C13.1507 28.0853 13.9914 27.25 15.0294 27.25C16.0701 27.25 16.908 28.0853 16.908 29.125C16.908 30.1581 16.0701 31 15.0294 31C13.9914 31 13.1507 30.1581 13.1507 29.125ZM22.544 25.375C22.544 24.3395 23.3851 23.5 24.4227 23.5C25.4603 23.5 26.3014 24.3395 26.3014 25.375C26.3014 26.4105 25.4603 27.25 24.4227 27.25C23.3851 27.25 22.544 26.4105 22.544 25.375ZM28.18 17.875C27.143 17.875 26.3014 17.035 26.3014 16C26.3014 14.9622 27.143 14.125 28.18 14.125C29.2171 14.125 30.0587 14.9622 30.0587 16C30.0587 17.035 29.2171 17.875 28.18 17.875ZM22.544 6.625C22.544 5.58947 23.3851 4.75 24.4227 4.75C25.4603 4.75 26.3014 5.58947 26.3014 6.625C26.3014 7.66053 25.4603 8.5 24.4227 8.5C23.3851 8.5 22.544 7.66053 22.544 6.625Z" fill="white"/>
</g>
<defs>
<clipPath id="clip0">
<rect width="30" height="30" fill="white" transform="translate(0 1)"/>
</clipPath>
</defs>
</svg>
