<!-- Generated by IcoMoon.io -->
<svg version="1.1" xmlns="http://www.w3.org/2000/svg" xmlns:xlink="http://www.w3.org/1999/xlink" viewBox="0 0 448 448" id="user"><path d="M380.75 334.75c-6.5-46.75-25.5-88.25-68-94-22 24-53.75 39.25-88.75 39.25s-66.75-15.25-88.75-39.25c-42.5 5.75-61.5 47.25-68 94 34.75 49 92 81.25 156.75 81.25s122-32.25 156.75-81.25zM320 160c0-53-43-96-96-96s-96 43-96 96 43 96 96 96 96-43 96-96zM448 224c0 123.25-100 224-224 224-123.75 0-224-100.5-224-224 0-123.75 100.25-224 224-224s224 100.25 224 224z"></path></svg>
